<svg width="156" height="52" viewBox="0 0 156 52" fill="none" xmlns="http://www.w3.org/2000/svg">
<path d="M143.577 0.000169H12.4299C11.9518 0.000169 11.4795 0.000169 11.0027 0.002769C10.6036 0.005369 10.2077 0.012922 9.80475 0.019279C8.92936 0.0295513 8.05604 0.106348 7.19236 0.249002C6.3299 0.394761 5.49446 0.66956 4.71428 1.0641C3.93507 1.46198 3.22307 1.97899 2.60413 2.59636C1.98194 3.212 1.4633 3.92359 1.06815 4.70378C0.671901 5.48241 0.397144 6.31679 0.253364 7.17809C0.108217 8.03831 0.0301122 8.90845 0.0197503 9.78069C0.00765242 10.1793 0.00637485 10.5792 0 10.9778V41.0264C0.00637485 41.43 0.00765242 41.821 0.0197503 42.2248C0.0301154 43.097 0.10822 43.9671 0.253364 44.8273C0.396747 45.6891 0.67152 46.524 1.06815 47.3029C1.46312 48.0805 1.98184 48.7893 2.60413 49.4015C3.22072 50.0216 3.93318 50.5389 4.71428 50.9338C5.49445 51.3294 6.3298 51.6058 7.19236 51.7538C8.05619 51.8953 8.92942 51.9722 9.80475 51.9837C10.2077 51.9925 10.6036 51.9976 11.0027 51.9976C11.4795 52.0002 11.9519 52.0002 12.4299 52.0002H143.577C144.046 52.0002 144.522 52.0002 144.99 51.9976C145.388 51.9976 145.795 51.9925 146.192 51.9837C147.066 51.9728 147.937 51.8959 148.799 51.7538C149.665 51.6048 150.503 51.3284 151.287 50.9338C152.067 50.5387 152.779 50.0214 153.395 49.4015C154.016 48.7869 154.536 48.0787 154.936 47.3029C155.329 46.5234 155.602 45.6886 155.743 44.8273C155.888 43.967 155.969 43.0971 155.985 42.2248C155.99 41.821 155.99 41.43 155.99 41.0264C156 40.5541 156 40.0844 156 39.6044V12.3971C156 11.9211 156 11.4488 155.99 10.9778C155.99 10.5792 155.99 10.1793 155.985 9.78064C155.969 8.90832 155.888 8.03838 155.743 7.17804C155.601 6.31724 155.329 5.48292 154.936 4.70373C154.131 3.13992 152.855 1.867 151.287 1.06399C150.503 0.670407 149.665 0.395682 148.799 0.248885C147.938 0.105603 147.066 0.0287791 146.192 0.019097C145.795 0.012753 145.388 0.005135 144.99 0.0026C144.522 0 144.046 0.000169 143.577 0.000169Z" fill="#A6A6A6"/>
<path d="M11.008 50.8686C10.6108 50.8686 10.2232 50.8635 9.82908 50.8546C9.01272 50.844 8.19825 50.7732 7.39238 50.6426C6.64094 50.5136 5.91301 50.2735 5.23257 49.9303C4.55838 49.59 3.94346 49.1438 3.41138 48.6088C2.87159 48.08 2.42219 47.4668 2.08099 46.7933C1.73603 46.1155 1.4973 45.3889 1.37311 44.639C1.23899 43.8331 1.16643 43.0183 1.15605 42.2015C1.14778 41.9273 1.13696 41.0144 1.13696 41.0144V10.9837C1.13696 10.9837 1.14849 10.0849 1.15611 9.8208C1.16605 9.00528 1.23819 8.1917 1.37191 7.3871C1.49633 6.63508 1.73524 5.90643 2.08039 5.22637C2.42033 4.55338 2.86724 3.93967 3.40377 3.40904C3.93971 2.87336 4.55659 2.42484 5.23193 2.07983C5.9108 1.73778 6.63737 1.49941 7.38728 1.37271C8.1958 1.24084 9.01309 1.16955 9.83229 1.15943L11.0086 1.14355H144.983L146.173 1.16006C146.985 1.16968 147.795 1.24034 148.596 1.37143C149.353 1.49972 150.087 1.73975 150.774 2.08364C152.127 2.77894 153.228 3.87897 153.922 5.22955C154.262 5.90491 154.497 6.62761 154.62 7.37314C154.755 8.18434 154.831 9.00432 154.847 9.82652C154.85 10.1947 154.85 10.5901 154.85 10.9837C154.861 11.4712 154.861 11.9352 154.861 12.403V39.6103C154.861 40.0826 154.861 40.5434 154.85 41.0081C154.85 41.4308 154.85 41.8181 154.845 42.2167C154.83 43.0242 154.756 43.8295 154.623 44.6262C154.501 45.3816 154.264 46.1138 153.919 46.7972C153.575 47.4634 153.128 48.0713 152.595 48.5986C152.062 49.1365 151.446 49.5854 150.77 49.9279C150.086 50.2737 149.353 50.5146 148.596 50.6426C147.79 50.7739 146.975 50.8447 146.159 50.8546C145.777 50.8635 145.377 50.8686 144.989 50.8686L143.576 50.8712L11.008 50.8686Z" fill="black"/>
<path d="M32.2905 26.3905C32.3045 25.3055 32.5936 24.2416 33.1307 23.2978C33.6678 22.3541 34.4356 21.5612 35.3626 20.9928C34.7737 20.1541 33.9968 19.4639 33.0936 18.977C32.1904 18.4901 31.1858 18.2199 30.1596 18.1879C27.9704 17.9587 25.8481 19.4941 24.7326 19.4941C23.5955 19.4941 21.8779 18.2106 20.0284 18.2486C18.8321 18.2871 17.6661 18.634 16.6442 19.2555C15.6223 19.877 14.7793 20.7518 14.1973 21.7948C11.676 26.1477 13.5566 32.5451 15.9718 36.0637C17.1801 37.7866 18.5924 39.7112 20.4402 39.643C22.2485 39.5682 22.9238 38.4932 25.1065 38.4932C27.2689 38.4932 27.9026 39.643 29.7879 39.5996C31.7282 39.5682 32.9507 37.869 34.1167 36.1297C34.9849 34.902 35.653 33.5452 36.0962 32.1094C34.9689 31.634 34.0069 30.8382 33.3302 29.8212C32.6534 28.8042 32.2918 27.6111 32.2905 26.3905Z" fill="#FFFCF6"/>
<path d="M28.7287 15.8684C29.7867 14.6019 30.3079 12.9741 30.1817 11.3306C28.5653 11.4999 27.0723 12.2702 26.0001 13.4881C25.4758 14.083 25.0743 14.7752 24.8185 15.525C24.5627 16.2748 24.4575 17.0675 24.5091 17.8579C25.3175 17.8662 26.1173 17.6914 26.8482 17.3468C27.5791 17.0022 28.2221 16.4967 28.7287 15.8684Z" fill="#FFFCF6"/>
<path d="M55.1469 35.2766H48.9762L47.4943 39.64H44.8806L50.7254 23.4966H53.4409L59.2857 39.64H56.6274L55.1469 35.2766ZM49.6153 33.2631H54.5065L52.0953 26.1817H52.0278L49.6153 33.2631Z" fill="#FFFCF6"/>
<path d="M71.9112 33.7604C71.9112 37.4179 69.9481 39.7678 66.9856 39.7678C66.2351 39.8069 65.4888 39.6346 64.832 39.2704C64.1753 38.9062 63.6346 38.365 63.272 37.7086H63.2159V43.5383H60.7932V27.8748H63.1383V29.8324H63.1829C63.5622 29.1792 64.1119 28.6408 64.7737 28.2744C65.4355 27.908 66.1845 27.7274 66.941 27.7517C69.9366 27.7517 71.9112 30.113 71.9112 33.7604ZM69.421 33.7604C69.421 31.3775 68.1861 29.8109 66.3019 29.8109C64.4508 29.8109 63.2058 31.4105 63.2058 33.7604C63.2058 36.1319 64.4508 37.7201 66.3019 37.7201C68.1861 37.7201 69.421 36.1649 69.421 33.7604Z" fill="#FFFCF6"/>
<path d="M84.8997 33.7604C84.8997 37.4179 82.9366 39.7678 79.9741 39.7678C79.2237 39.8069 78.4773 39.6346 77.8206 39.2704C77.1638 38.9062 76.6231 38.3649 76.2605 37.7086H76.2044V43.5383H73.7817V27.8748H76.1268V29.8324H76.1713C76.5506 29.1792 77.1004 28.6408 77.7622 28.2744C78.424 27.908 79.173 27.7273 79.9295 27.7517C82.9251 27.7517 84.8997 30.113 84.8997 33.7604ZM82.4095 33.7604C82.4095 31.3775 81.1746 29.8109 79.2905 29.8109C77.4394 29.8109 76.1943 31.4105 76.1943 33.7604C76.1943 36.1319 77.4394 37.72 79.2905 37.72C81.1746 37.72 82.4095 36.1649 82.4095 33.7604Z" fill="#FFFCF6"/>
<path d="M93.4847 35.1461C93.6642 36.747 95.2237 37.7981 97.3549 37.7981C99.3969 37.7981 100.866 36.7469 100.866 35.3034C100.866 34.0504 99.98 33.3001 97.8819 32.786L95.7839 32.2819C92.8112 31.5659 91.4312 30.1796 91.4312 27.93C91.4312 25.1446 93.8653 23.2314 97.3218 23.2314C100.743 23.2314 103.088 25.1446 103.167 27.93H100.721C100.575 26.3189 99.239 25.3465 97.2874 25.3465C95.3357 25.3465 94.0002 26.3304 94.0002 27.7624C94.0002 28.9037 94.8532 29.5753 96.9398 30.0894L98.7234 30.5261C102.045 31.3094 103.425 32.6399 103.425 35.0012C103.425 38.0214 101.012 39.9131 97.1753 39.9131C93.5852 39.9131 91.1612 38.0659 91.0046 35.146L93.4847 35.1461Z" fill="#FFFCF6"/>
<path d="M108.653 25.0889V27.8742H110.897V29.7874H108.653V36.276C108.653 37.284 109.102 37.7537 110.089 37.7537C110.355 37.7491 110.621 37.7304 110.886 37.6978V39.5996C110.442 39.6822 109.992 39.7197 109.54 39.7113C107.151 39.7113 106.219 38.8163 106.219 36.5337V29.7874H104.503V27.8742H106.219V25.0889H108.653Z" fill="#FFFCF6"/>
<path d="M112.198 33.7598C112.198 30.0565 114.386 27.7295 117.796 27.7295C121.218 27.7295 123.395 30.0565 123.395 33.7598C123.395 37.4732 121.23 39.79 117.796 39.79C114.364 39.79 112.198 37.4731 112.198 33.7598ZM120.927 33.7598C120.927 31.2194 119.759 29.7201 117.796 29.7201C115.833 29.7201 114.667 31.2309 114.667 33.7598C114.667 36.3102 115.833 37.7981 117.796 37.7981C119.759 37.7981 120.927 36.3102 120.927 33.7598Z" fill="#FFFCF6"/>
<path d="M125.394 27.8747H127.704V29.878H127.76C127.917 29.2523 128.284 28.6994 128.801 28.3122C129.318 27.9249 129.953 27.727 130.599 27.7516C130.878 27.7506 131.157 27.7808 131.429 27.8417V30.1015C131.077 29.9941 130.709 29.9448 130.341 29.9555C129.989 29.9412 129.638 30.0031 129.312 30.1369C128.987 30.2706 128.694 30.4731 128.454 30.7303C128.214 30.9876 128.033 31.2936 127.923 31.6272C127.813 31.9609 127.776 32.3144 127.816 32.6634V39.6445H125.394L125.394 27.8747Z" fill="#FFFCF6"/>
<path d="M142.598 36.1871C142.272 38.3237 140.185 39.79 137.515 39.79C134.082 39.79 131.951 37.496 131.951 33.8156C131.951 30.1238 134.093 27.7295 137.414 27.7295C140.679 27.7295 142.733 29.9664 142.733 33.5351V34.3628H134.396V34.5088C134.358 34.9419 134.412 35.3783 134.556 35.7889C134.699 36.1995 134.929 36.5749 135.229 36.8902C135.53 37.2055 135.894 37.4535 136.298 37.6177C136.701 37.7819 137.136 37.8586 137.571 37.8426C138.144 37.8961 138.718 37.7638 139.21 37.4656C139.701 37.1673 140.082 36.7189 140.297 36.1871L142.598 36.1871ZM134.408 32.6743H140.309C140.33 32.2848 140.271 31.8951 140.135 31.5295C139.998 31.1639 139.787 30.8304 139.516 30.5499C139.244 30.2695 138.917 30.048 138.555 29.8995C138.193 29.7511 137.805 29.6787 137.414 29.6871C137.019 29.6848 136.628 29.7604 136.263 29.9095C135.898 30.0587 135.566 30.2785 135.286 30.5562C135.007 30.8339 134.786 31.1641 134.635 31.5276C134.484 31.8912 134.407 32.2809 134.408 32.6743Z" fill="#FFFCF6"/>
<path d="M49.3156 11.3545C49.8235 11.3182 50.3332 11.3947 50.8078 11.5785C51.2825 11.7624 51.7104 12.049 52.0605 12.4177C52.4106 12.7865 52.6744 13.2281 52.8326 13.7107C52.9909 14.1934 53.0398 14.705 52.9757 15.2088C52.9757 17.6869 51.6326 19.1114 49.3156 19.1114H46.5059V11.3545H49.3156ZM47.714 18.0144H49.1806C49.5436 18.036 49.9068 17.9767 50.2438 17.8407C50.5809 17.7047 50.8833 17.4955 51.129 17.2282C51.3747 16.961 51.5576 16.6425 51.6643 16.2959C51.771 15.9493 51.7989 15.5833 51.7459 15.2246C51.7951 14.8673 51.7644 14.5036 51.656 14.1596C51.5477 13.8155 51.3643 13.4996 51.1191 13.2345C50.874 12.9694 50.573 12.7616 50.2379 12.6261C49.9028 12.4906 49.5417 12.4307 49.1806 12.4507H47.714V18.0144Z" fill="#FFFCF6"/>
<path d="M54.3393 16.1813C54.3024 15.7966 54.3465 15.4085 54.4688 15.0418C54.5912 14.6751 54.789 14.338 55.0497 14.052C55.3103 13.766 55.628 13.5375 55.9824 13.3812C56.3368 13.2248 56.7201 13.144 57.1076 13.144C57.4951 13.144 57.8784 13.2248 58.2328 13.3812C58.5872 13.5375 58.9049 13.766 59.1656 14.052C59.4262 14.338 59.6241 14.6751 59.7464 15.0418C59.8687 15.4085 59.9129 15.7966 59.876 16.1813C59.9136 16.5664 59.87 16.9551 59.7479 17.3224C59.6259 17.6897 59.4282 18.0274 59.1675 18.314C58.9068 18.6005 58.5888 18.8295 58.2341 18.9862C57.8793 19.1429 57.4956 19.2238 57.1076 19.2238C56.7196 19.2238 56.3359 19.1429 55.9812 18.9862C55.6264 18.8295 55.3085 18.6005 55.0477 18.314C54.787 18.0274 54.5893 17.6897 54.4673 17.3224C54.3453 16.9551 54.3017 16.5664 54.3393 16.1813ZM58.6843 16.1813C58.6843 14.9124 58.1127 14.1704 57.1095 14.1704C56.1025 14.1704 55.536 14.9124 55.536 16.1813C55.536 17.4604 56.1025 18.1967 57.1095 18.1967C58.1127 18.1967 58.6843 17.4553 58.6843 16.1813Z" fill="#FFFCF6"/>
<path d="M67.2379 19.1062H66.0361L64.8229 14.7949H64.7312L63.5231 19.1062H62.3327L60.7146 13.2524H61.8897L62.9412 17.7192H63.0278L64.2347 13.2524H65.3461L66.553 17.7192H66.6447L67.6912 13.2524H68.8497L67.2379 19.1062Z" fill="#FFFCF6"/>
<path d="M70.2075 13.2599H71.3228V14.1898H71.4093C71.5562 13.8558 71.8039 13.5758 72.1179 13.3889C72.4319 13.2019 72.7966 13.1173 73.1611 13.1469C73.4467 13.1255 73.7335 13.1684 74.0003 13.2725C74.267 13.3767 74.5068 13.5393 74.7019 13.7484C74.8971 13.9575 75.0425 14.2077 75.1275 14.4805C75.2125 14.7532 75.2349 15.0416 75.193 15.3241V19.1136H74.0344V15.6142C74.0344 14.6735 73.6245 14.2057 72.7677 14.2057C72.5738 14.1967 72.3802 14.2296 72.2002 14.3022C72.0202 14.3747 71.8581 14.4853 71.725 14.6262C71.5919 14.7671 71.4909 14.935 71.4289 15.1185C71.3669 15.3019 71.3455 15.4966 71.366 15.6891V19.1137H70.2075L70.2075 13.2599Z" fill="#FFFCF6"/>
<path d="M77.0435 10.9688H78.202V19.1077H77.0435V10.9688Z" fill="#FFFCF6"/>
<path d="M79.8116 16.1814C79.7748 15.7967 79.8189 15.4086 79.9413 15.0419C80.0637 14.6752 80.2615 14.338 80.5222 14.052C80.7829 13.766 81.1006 13.5375 81.4551 13.3812C81.8095 13.2248 82.1928 13.144 82.5803 13.144C82.9679 13.144 83.3512 13.2248 83.7056 13.3812C84.06 13.5375 84.3777 13.766 84.6384 14.052C84.8991 14.338 85.097 14.6752 85.2193 15.0419C85.3417 15.4086 85.3858 15.7967 85.349 16.1814C85.3865 16.5665 85.3429 16.9552 85.2208 17.3225C85.0988 17.6898 84.901 18.0275 84.6403 18.3141C84.3795 18.6006 84.0616 18.8296 83.7068 18.9863C83.352 19.1429 82.9683 19.2239 82.5803 19.2239C82.1923 19.2239 81.8086 19.1429 81.4538 18.9863C81.0991 18.8296 80.7811 18.6006 80.5203 18.3141C80.2596 18.0275 80.0618 17.6898 79.9398 17.3225C79.8177 16.9552 79.7741 16.5665 79.8116 16.1814ZM84.1567 16.1814C84.1567 14.9126 83.5851 14.1705 82.5819 14.1705C81.5749 14.1705 81.0084 14.9126 81.0084 16.1815C81.0084 17.4605 81.5749 18.1968 82.5819 18.1968C83.5851 18.1968 84.1567 17.4554 84.1567 16.1814Z" fill="#FFFCF6"/>
<path d="M86.5657 17.4554C86.5657 16.4016 87.3524 15.7942 88.749 15.7079L90.3391 15.6164V15.1112C90.3391 14.4929 89.9292 14.1438 89.1373 14.1438C88.4906 14.1438 88.0425 14.3806 87.9139 14.7944H86.7923C86.9107 13.789 87.8591 13.144 89.1908 13.144C90.6625 13.144 91.4926 13.8746 91.4926 15.1112V19.1108H90.3773V18.2882H90.2857C90.0996 18.5833 89.8384 18.8238 89.5286 18.9853C89.2188 19.1468 88.8716 19.2234 88.5224 19.2073C88.276 19.2328 88.0269 19.2066 87.7913 19.1303C87.5556 19.054 87.3386 18.9293 87.1543 18.7642C86.9699 18.5992 86.8223 18.3974 86.7209 18.172C86.6195 17.9466 86.5666 17.7024 86.5657 17.4554ZM90.3391 16.9552V16.4658L88.9056 16.5572C88.0972 16.6111 87.7305 16.8853 87.7305 17.4014C87.7305 17.9283 88.1889 18.2348 88.8191 18.2348C89.0037 18.2535 89.1903 18.2349 89.3676 18.1802C89.5449 18.1255 89.7093 18.0357 89.8512 17.9163C89.993 17.7969 90.1093 17.6503 90.1931 17.4852C90.2769 17.3201 90.3266 17.1398 90.3391 16.9552Z" fill="#FFFCF6"/>
<path d="M93.0166 16.1783C93.0166 14.3286 93.9702 13.1568 95.4533 13.1568C95.8202 13.1399 96.1843 13.2276 96.5031 13.4094C96.8218 13.5913 97.0821 13.8599 97.2535 14.1838H97.34V10.9688H98.4985V19.1077H97.3884V18.1829H97.2968C97.1122 18.5046 96.8428 18.7698 96.5179 18.9499C96.1929 19.1299 95.8248 19.2178 95.4533 19.2042C93.96 19.2043 93.0166 18.0324 93.0166 16.1783ZM94.2134 16.1783C94.2134 17.4199 94.8003 18.167 95.7818 18.167C96.7582 18.167 97.3617 17.4091 97.3617 16.1834C97.3617 14.9634 96.7519 14.1946 95.7818 14.1946C94.8066 14.1946 94.2134 14.9468 94.2134 16.1783Z" fill="#FFFCF6"/>
<path d="M103.292 16.1813C103.255 15.7966 103.3 15.4085 103.422 15.0418C103.544 14.6751 103.742 14.338 104.003 14.052C104.263 13.766 104.581 13.5375 104.936 13.3812C105.29 13.2248 105.673 13.144 106.061 13.144C106.448 13.144 106.832 13.2248 107.186 13.3812C107.54 13.5375 107.858 13.766 108.119 14.052C108.379 14.338 108.577 14.6751 108.7 15.0418C108.822 15.4085 108.866 15.7966 108.829 16.1813C108.867 16.5664 108.823 16.9551 108.701 17.3224C108.579 17.6897 108.381 18.0274 108.121 18.314C107.86 18.6005 107.542 18.8295 107.187 18.9862C106.832 19.1429 106.449 19.2238 106.061 19.2238C105.673 19.2238 105.289 19.1429 104.934 18.9862C104.58 18.8295 104.262 18.6005 104.001 18.314C103.74 18.0274 103.542 17.6897 103.42 17.3224C103.298 16.9551 103.255 16.5664 103.292 16.1813ZM107.637 16.1813C107.637 14.9124 107.066 14.1704 106.063 14.1704C105.056 14.1704 104.489 14.9124 104.489 16.1813C104.489 17.4604 105.056 18.1967 106.063 18.1967C107.066 18.1967 107.637 17.4553 107.637 16.1813Z" fill="#FFFCF6"/>
<path d="M110.384 13.2599H111.499V14.1898H111.586C111.732 13.8558 111.98 13.5758 112.294 13.3889C112.608 13.2019 112.973 13.1173 113.337 13.1469C113.623 13.1255 113.91 13.1684 114.177 13.2725C114.443 13.3767 114.683 13.5393 114.878 13.7484C115.073 13.9575 115.219 14.2077 115.304 14.4805C115.389 14.7532 115.411 15.0416 115.369 15.3241V19.1136H114.211V15.6142C114.211 14.6735 113.801 14.2057 112.944 14.2057C112.75 14.1967 112.556 14.2296 112.376 14.3022C112.197 14.3747 112.034 14.4853 111.901 14.6262C111.768 14.7671 111.667 14.935 111.605 15.1185C111.543 15.3019 111.522 15.4966 111.542 15.6891V19.1137H110.384V13.2599Z" fill="#FFFCF6"/>
<path d="M121.916 11.7944V13.2785H123.188V14.2516H121.916V17.2617C121.916 17.8749 122.169 18.1434 122.746 18.1434C122.893 18.1429 123.041 18.134 123.188 18.1167V19.079C122.979 19.1161 122.769 19.1359 122.557 19.138C121.269 19.138 120.756 18.6861 120.756 17.5575V14.2516H119.824V13.2785H120.756V11.7944H121.916Z" fill="#FFFCF6"/>
<path d="M124.766 10.9688H125.915V14.1946H126.006C126.16 13.8575 126.415 13.5759 126.735 13.3883C127.055 13.2006 127.426 13.116 127.796 13.146C128.08 13.1306 128.364 13.1779 128.628 13.2845C128.892 13.3912 129.129 13.5546 129.322 13.763C129.515 13.9715 129.659 14.2198 129.745 14.4904C129.831 14.761 129.856 15.0471 129.818 15.3283V19.1077H128.658V15.6133C128.658 14.6783 128.222 14.2048 127.403 14.2048C127.204 14.1885 127.004 14.2158 126.816 14.2848C126.629 14.3537 126.459 14.4627 126.318 14.6041C126.177 14.7454 126.069 14.9157 126.001 15.1031C125.933 15.2905 125.907 15.4904 125.925 15.6889V19.1077H124.766L124.766 10.9688Z" fill="#FFFCF6"/>
<path d="M136.576 17.5304C136.419 18.0654 136.078 18.5281 135.613 18.8377C135.148 19.1473 134.588 19.284 134.032 19.2239C133.646 19.2341 133.261 19.1602 132.906 19.0074C132.551 18.8547 132.233 18.6266 131.975 18.3391C131.717 18.0517 131.525 17.7116 131.412 17.3427C131.299 16.9737 131.268 16.5846 131.321 16.2024C131.269 15.8191 131.301 15.4292 131.414 15.0591C131.526 14.689 131.718 14.3474 131.974 14.0574C132.231 13.7674 132.547 13.5358 132.901 13.3783C133.255 13.2207 133.639 13.1408 134.027 13.1441C135.661 13.1441 136.646 14.2569 136.646 16.0951V16.4983H132.501V16.563C132.483 16.7778 132.51 16.994 132.58 17.1978C132.651 17.4016 132.763 17.5884 132.911 17.7463C133.058 17.9042 133.236 18.0297 133.435 18.1147C133.634 18.1997 133.848 18.2424 134.064 18.24C134.341 18.2732 134.622 18.2234 134.871 18.097C135.119 17.9707 135.325 17.7734 135.461 17.5303L136.576 17.5304ZM132.501 15.6438H135.466C135.48 15.4474 135.454 15.25 135.387 15.0645C135.321 14.879 135.216 14.7093 135.08 14.5665C134.944 14.4237 134.78 14.3109 134.597 14.2352C134.415 14.1596 134.218 14.1229 134.021 14.1274C133.821 14.1249 133.622 14.1624 133.436 14.2377C133.25 14.3131 133.082 14.4247 132.94 14.566C132.799 14.7073 132.687 14.8755 132.611 15.0606C132.536 15.2457 132.498 15.444 132.501 15.6438Z" fill="#FFFCF6"/>
</svg>
