<svg width="177" height="52" viewBox="0 0 177 52" fill="none" xmlns="http://www.w3.org/2000/svg">
<path d="M169.606 52H6.5233C2.93548 52 0 49.075 0 45.5V6.5C0 2.925 2.93548 0 6.5233 0H169.606C173.194 0 176.129 2.925 176.129 6.5V45.5C176.129 49.075 173.194 52 169.606 52Z" fill="black"/>
<path d="M169.606 1.04C172.633 1.04 175.086 3.484 175.086 6.5V45.5C175.086 48.516 172.633 50.96 169.606 50.96H6.52403C3.49722 50.96 1.04446 48.516 1.04446 45.5V6.5C1.04446 3.484 3.49722 1.04 6.52403 1.04H169.606ZM169.606 0H6.52403C2.93622 0 0.000732422 2.925 0.000732422 6.5V45.5C0.000732422 49.075 2.93622 52 6.52403 52H169.606C173.194 52 176.13 49.075 176.13 45.5V6.5C176.13 2.925 173.194 0 169.606 0Z" fill="#A6A6A6"/>
<path d="M59.99 16.5829C59.5595 16.7389 58.7245 16.9859 57.733 16.9859C56.624 16.9859 55.6977 16.6999 54.9801 16.0109C54.3409 15.3999 53.9495 14.4249 53.9495 13.2809C53.9625 11.0969 55.4629 9.48486 57.9417 9.48486C58.7898 9.48486 59.4551 9.66686 59.7813 9.82286L59.5465 10.5899C59.1551 10.4209 58.6593 10.2779 57.9156 10.2779C56.1282 10.2779 54.9541 11.3829 54.9541 13.2289C54.9541 15.0879 56.0761 16.1929 57.7982 16.1929C58.4244 16.1929 58.8419 16.1019 59.0637 15.9979V13.8139H57.5634V13.0469H59.99V16.5829Z" fill="#FFFCF6" stroke="#FFFCF6" stroke-width="0.2" stroke-miterlimit="10"/>
<path d="M65.4712 13.4664H62.601V16.1184H65.7974V16.9114H61.6616V9.56641H65.6408V10.3594H62.614V12.6734H65.4843V13.4664H65.4712Z" fill="#FFFCF6" stroke="#FFFCF6" stroke-width="0.2" stroke-miterlimit="10"/>
<path d="M68.8331 10.3724H66.5891V9.56641H72.0426V10.3724H69.7855V16.9114H68.8201V10.3724H68.8331Z" fill="#FFFCF6" stroke="#FFFCF6" stroke-width="0.2" stroke-miterlimit="10"/>
<path d="M76.5691 9.56641V16.9114H75.6167V9.56641H76.5691Z" fill="#FFFCF6" stroke="#FFFCF6" stroke-width="0.2" stroke-miterlimit="10"/>
<path d="M79.8478 10.3724H77.6038V9.56641H83.0572V10.3724H80.8002V16.9114H79.8478V10.3724Z" fill="#FFFCF6" stroke="#FFFCF6" stroke-width="0.2" stroke-miterlimit="10"/>
<path d="M92.9325 13.1633C92.9325 15.6853 91.393 17.0243 89.5143 17.0243C87.5703 17.0243 86.2004 15.5163 86.2004 13.3063C86.2004 10.9793 87.6486 9.44531 89.6186 9.44531C91.6278 9.44531 92.9325 10.9793 92.9325 13.1633ZM87.2181 13.2803C87.2181 14.8533 88.0661 16.2573 89.5665 16.2573C91.0799 16.2573 91.9279 14.8793 91.9279 13.2023C91.9279 11.7463 91.1581 10.2123 89.5795 10.2123C88.0009 10.2253 87.2181 11.6683 87.2181 13.2803Z" fill="#FFFCF6" stroke="#FFFCF6" stroke-width="0.2" stroke-miterlimit="10"/>
<path d="M94.3943 16.9114V9.56641H95.438L97.7994 13.2844C98.3474 14.1424 98.7779 14.9224 99.1172 15.6634L99.1432 15.6504C99.0519 14.6754 99.0389 13.7784 99.0389 12.6344V9.56641H99.9391V16.9114H98.9736L96.6383 13.1804C96.1295 12.3614 95.6337 11.5294 95.2554 10.7364L95.2162 10.7494C95.2684 11.6724 95.2945 12.5564 95.2945 13.7784V16.9114H94.3943Z" fill="#FFFCF6" stroke="#FFFCF6" stroke-width="0.2" stroke-miterlimit="10"/>
<path d="M88.9002 28.277C85.8343 28.277 83.3293 30.604 83.3293 33.802C83.3293 36.987 85.8343 39.327 88.9002 39.327C91.9662 39.327 94.4711 36.987 94.4711 33.802C94.4711 30.604 91.9662 28.277 88.9002 28.277ZM88.9002 37.156C87.2172 37.156 85.769 35.778 85.769 33.802C85.769 31.813 87.2172 30.448 88.9002 30.448C90.5832 30.448 92.0314 31.813 92.0314 33.802C92.0314 35.778 90.5702 37.156 88.9002 37.156ZM76.7408 28.277C73.6748 28.277 71.1699 30.604 71.1699 33.802C71.1699 36.987 73.6748 39.327 76.7408 39.327C79.8067 39.327 82.3117 36.987 82.3117 33.802C82.3117 30.604 79.8067 28.277 76.7408 28.277ZM76.7408 37.156C75.0578 37.156 73.6096 35.778 73.6096 33.802C73.6096 31.813 75.0578 30.448 76.7408 30.448C78.4238 30.448 79.872 31.813 79.872 33.802C79.872 35.778 78.4238 37.156 76.7408 37.156ZM62.2852 29.98V32.32H67.9213C67.7517 33.633 67.3081 34.608 66.6427 35.271C65.8208 36.09 64.5422 36.987 62.2982 36.987C58.8278 36.987 56.1141 34.205 56.1141 30.747C56.1141 27.289 58.8278 24.507 62.2982 24.507C64.1639 24.507 65.5338 25.235 66.5383 26.184L68.1953 24.533C66.7862 23.194 64.9206 22.167 62.2852 22.167C57.5362 22.167 53.5439 26.015 53.5439 30.76C53.5439 35.492 57.5362 39.353 62.2852 39.353C64.8553 39.353 66.7862 38.521 68.2996 36.948C69.8522 35.401 70.3349 33.217 70.3349 31.462C70.3349 30.916 70.2958 30.409 70.2044 29.993H62.2852V29.98ZM121.399 31.8C120.943 30.565 119.534 28.277 116.65 28.277C113.793 28.277 111.419 30.513 111.419 33.802C111.419 36.896 113.767 39.327 116.924 39.327C119.468 39.327 120.943 37.78 121.543 36.883L119.651 35.622C119.025 36.545 118.164 37.156 116.924 37.156C115.685 37.156 114.798 36.597 114.237 35.479L121.66 32.424L121.399 31.8ZM113.832 33.646C113.767 31.514 115.489 30.422 116.729 30.422C117.694 30.422 118.516 30.903 118.79 31.592L113.832 33.646ZM107.805 39.002H110.244V22.752H107.805V39.002ZM103.812 29.512H103.721C103.173 28.862 102.129 28.277 100.799 28.277C98.0198 28.277 95.4757 30.708 95.4757 33.828C95.4757 36.922 98.0198 39.34 100.799 39.34C102.116 39.34 103.173 38.755 103.721 38.079H103.799V38.872C103.799 40.991 102.664 42.122 100.838 42.122C99.3505 42.122 98.4242 41.056 98.0459 40.159L95.9193 41.043C96.5325 42.512 98.1502 44.306 100.838 44.306C103.695 44.306 106.109 42.629 106.109 38.547V28.615H103.799V29.512H103.812ZM101.007 37.156C99.3244 37.156 97.9154 35.752 97.9154 33.828C97.9154 31.878 99.3244 30.461 101.007 30.461C102.664 30.461 103.969 31.891 103.969 33.828C103.982 35.752 102.677 37.156 101.007 37.156ZM132.828 22.752H126.996V39.002H129.436V32.84H132.841C135.542 32.84 138.19 30.89 138.19 27.796C138.177 24.702 135.516 22.752 132.828 22.752ZM132.88 30.578H129.423V25.001H132.88C134.707 25.001 135.737 26.509 135.737 27.783C135.737 29.057 134.707 30.578 132.88 30.578ZM147.936 28.251C146.175 28.251 144.348 29.031 143.592 30.734L145.757 31.631C146.214 30.734 147.075 30.435 147.975 30.435C149.228 30.435 150.519 31.189 150.532 32.528V32.697C150.089 32.45 149.149 32.073 147.988 32.073C145.653 32.073 143.291 33.347 143.291 35.726C143.291 37.897 145.196 39.301 147.336 39.301C148.967 39.301 149.88 38.573 150.441 37.715H150.519V38.963H152.868V32.736C152.881 29.863 150.715 28.251 147.936 28.251ZM147.636 37.156C146.84 37.156 145.731 36.753 145.731 35.778C145.731 34.53 147.114 34.049 148.314 34.049C149.384 34.049 149.893 34.283 150.532 34.595C150.35 36.09 149.045 37.156 147.636 37.156ZM161.439 28.602L158.647 35.648H158.569L155.673 28.602H153.05L157.395 38.456L154.916 43.929H157.46L164.153 28.602H161.439ZM139.521 39.002H141.961V22.752H139.521V39.002Z" fill="#FFFCF6"/>
<path d="M27.0289 25.2476L13.1343 39.9376C13.1343 39.9376 13.1343 39.9376 13.1343 39.9506C13.5648 41.5496 15.026 42.7196 16.7612 42.7196C17.4527 42.7196 18.105 42.5376 18.666 42.1996L18.7052 42.1736L34.335 33.1906L27.0289 25.2476Z" fill="#EA4335"/>
<path d="M41.0818 22.7455L41.0688 22.7325L34.3237 18.8325L26.7175 25.5795L34.3498 33.1845L41.0688 29.3235C42.243 28.6865 43.0388 27.4515 43.0388 26.0345C43.0388 24.6045 42.243 23.3825 41.0818 22.7455Z" fill="#FBBC04"/>
<path d="M13.1371 12.061C13.0588 12.373 13.0066 12.685 13.0066 13.023V38.984C13.0066 39.322 13.0457 39.634 13.1371 39.946L27.5014 25.633L13.1371 12.061Z" fill="#4285F4"/>
<path d="M27.1333 25.9973L34.3219 18.8343L18.7052 9.8123C18.1442 9.4743 17.4788 9.2793 16.7612 9.2793C15.026 9.2793 13.5648 10.4623 13.1343 12.0483L27.1333 25.9973Z" fill="#34A853"/>
</svg>
