<svg fill="none" height="30" viewBox="0 0 57 30" width="57" xmlns="http://www.w3.org/2000/svg"><g fill="#fffcf6"><path d="m0 0h5.08869l4.37628 25.6102 4.32543-25.6102h5.0887l-5.852 29.9973h-7.12422z"/><path clip-rule="evenodd" d="m21.1865 24.5317-.4613 5.4557h-3.1451l2.6838-29.98544688h3.7323l2.6838 29.98544688h-3.1451l-.4613-5.4557zm.9226-11.3278-.7129 8.6208h1.4258z" fill-rule="evenodd"/><path d="m28.0312 29.9993v-29.99734688h4.5247l9.0041 19.94824688v-19.94824688h4.5247v29.99734688h-4.5247l-9.0041-19.9857v19.9857z"/><path clip-rule="evenodd" d="m50.5831 29.9874.4585-5.4557h1.8757l.4585 5.4557h3.1261l-2.6676-29.98544688h-3.7097l-2.6676 29.98544688zm.6669-8.1627.7086-8.6208.7086 8.6208z" fill-rule="evenodd"/></g></svg>